
<svg xmlns="http://www.w3.org/2000/svg" width="65" height="65"><g fill="none" fill-rule="nonzero"><rect width="65" height="65" fill="#081B7E" rx="16"/><g fill="#FFFFFF"><path d="M21.99547 20.7027339c-.05118313-.0485452-.1068958-.1007878-.16196062-.1536935-1.12896126-1.08461266-2.00266722-2.33870864-2.53043335-3.82101787-.14770898-.41486705-.25921932-.83800304-.23943954-1.28483181.0018791-.04240505.00175293-.08493089.00467628-.12725452.03981904-.57678919.42585084-.86825388.98951585-.73165844a2.44506862 2.44506862 0 01.51285949.19654771c.61654381.30919088 1.11906735.76627865 1.581175 1.26756198.82077861.87347089 1.47900919 1.88647236 1.94370639 2.99131869a.74235518.74235518 0 00.0348493.07704315c.0063675.01150278.0198934.01904335.050044.04642543 2.1998458-1.31977561 4.6882797-2.08334201 7.2497609-2.22456133-.0157943-.07839431-.0252291-.13831168-.0400624-.19685821-.2613605-1.08160046-.3415769-2.19905151-.237386-3.30689315.0458495-.66388037.1795807-1.3187428.397693-1.94744491.105512-.33113827.2716849-.63976718.4900436-.9101462a1.4036892 1.4036892 0 01.2830607-.25246977c.214915-.15196797.5017476-.15396766.7187606-.00501094.2238727.15163922.4040622.35933917.522587.60237271.2207717.41218011.3794388.85471476.4708625 1.31327156.2084421.96966623.2724451 1.96481285.189935 2.95319173a8.55420956 8.55420956 0 01-.3123352 1.7816393c.6372578.11739281 1.2714848.20837352 1.8922816.35587759a16.67738316 16.67738316 0 011.8290535.53718132 16.8507633 16.8507633 0 011.7690601.76678958c.567791.28314743 1.1082697.62105723 1.674867.94297678.0184071-.03874527.0451333-.08499084.0631736-.1344112.5901891-1.63258607 1.6067154-3.07738559 2.9439975-4.18433494.3121732-.26799608.6706706-.47672028 1.0578445-.61589776a1.54315044 1.54315044 0 01.3291353-.07562219c.560509-.06418383.7958002.28852256.8372317.70974812.0310537.31052407.0076211.62408596-.0692413.92654539-.2047328.78128394-.5285729 1.52637583-.9601321 2.20907396-.6075903.9817659-1.3288063 1.86612104-2.2453531 2.57977494-.0270537.0210639-.0508109.0463637-.0966288.0886122.896494.8268695 1.6949262 1.7540909 2.3795621 2.7633918a.98092328.98092328 0 01-.1511334.0266313c-.9480924.0013422-1.8962009-.0016366-2.8442629.0041224-.1132057-.0027146-.2184646-.0587871-.2838749-.1512229-2.0685616-2.2599825-4.8572646-3.73212046-7.8902346-4.16520302a12.82787405 12.82787405 0 00-2.7094446-.10462388c-2.6964349.16464459-5.2760408 1.1588457-7.3855188 2.8464391a12.5333023 12.5333023 0 00-1.51904388 1.4175456c-.08390992.1040941-.21208459.1624015-.34568839.1572557-.90559789-.0062887-1.81126378-.0031319-2.71690551-.0031274h-.19257386c.05529926-.2154702.61207334-.9787307 1.24231133-1.6601241.4699963-.5081456.96788561-.990493 1.47360541-1.50493zM45.0815658 40.9950144c-.6298576.8815853-1.3486931 1.6960705-2.1451666 2.4306066.0634787.0528546.1150672.0957813.1666244.1387465 1.3824337 1.1308985 2.425488 2.6218052 3.0140137 4.3081301.1565824.4112361.2237525.8511135.1970372 1.2903394a1.33196304 1.33196304 0 01-.0669192.3303692c-.0941406.3132586-.4078803.5064374-.7299798.4494703-.2099812-.0272571-.4142647-.0878613-.6051386-.1795249a4.58432275 4.58432275 0 01-.8215707-.5203409c-1.3411956-1.1019727-2.3595057-2.5460587-2.9471464-4.1794073-.0167741-.0459341-.0350927-.0913064-.0646438-.1679478a17.41749202 17.41749202 0 01-2.2381195 1.2534267 16.25594455 16.25594455 0 01-2.3879706.8701509 16.782746 16.782746 0 01-2.5327151.4821281c.015039.0751775.0236641.1350984.0391434.1931958.271302 1.0643151.3611723 2.1667626.2658302 3.2609661-.0357339.6858233-.1689934 1.363058-.395762 2.0112914a7.00184282 7.00184282 0 01-.372666.7824872c-.0568304.0980628-.1272876.1875657-.2092647.2658329-.3561425.3676774-.7813706.3708093-1.128496-.0065912a2.44105625 2.44105625 0 01-.3496023-.5026828c-.2753196-.5168146-.4170173-1.078783-.5181845-1.6518382-.13019-.7822078-.170985-1.576686-.1215984-2.3681148a8.45411678 8.45411678 0 01.2581223-1.7167047c.0125353-.0476656.0239809-.0957089.0332278-.1440948.0023525-.0123072-.0056749-.0266027-.0152717-.0660594-2.5610728-.1447386-5.0481037-.9124503-7.2451473-2.2364757-.03668.081357-.0681899.1498565-.0985794.2188517-.6157153 1.4366703-1.56332539 2.7068637-2.76506328 3.70634-.31813465.2718703-.68353377.4829463-1.07798304.6227063-.18485452.0741543-.38659267.0958365-.58298307.0626573-.22060988-.0395165-.40421975-.1920646-.48349182-.4016981-.12671763-.306383-.10426864-.6250248-.06123901-.9410637.07058637-.4404391.20023966-.8693492.38545554-1.2751374.54879736-1.2781567 1.35653117-2.4287074 2.37224525-3.3790694.04107178-.0388894.08320033-.0766853.12356164-.1162842a.33647168.33647168 0 00.03269099-.058636c-.95702945-.8300003-1.81215644-1.7706646-2.54743475-2.8022516.08810121-.0071746.14704145-.0161066.20598975-.0161603.94083551-.0008733 1.88169607.0024482 2.82248504-.0038995.12673706-.0038677.24846891.0495838.33138753.1455095 1.02280633 1.052258 2.21454013 1.9258811 3.52579863 2.5846535 1.3872277.7138569 2.8956347 1.1622057 4.4475594 1.3219628 4.2163736.409863 7.8433284-.8683589 10.8808643-3.8346655.1375636-.1486646.3339301-.2287326.5362248-.2186442.8770382.010846 1.7542858.0044616 2.6314574.0044616h.2267028l.0157155.0530085zM41.1628723 27.5593851c.2493934 0 .4894942.0169289.7261267-.004483.2680045-.0242494.4598429.0715937.6553177.2517172 1.1286016 1.0399608 2.2689985 2.0671266 3.4055245 3.0984847.0571381.0518525.1154654.1023949.1888139.1673384.0684037-.0588051.1325383-.111241.1937111-.1669268A2936.20086797 2936.20086797 0 0049.8443409 27.7033c.0981856-.1011709.2353641-.1548782.3761406-.1472642.2880286.0116665.5768598.0033519.8806004.0033519v9.4284937c-.1541838.0450698-2.2258937.0540161-2.4731753.0054673v-4.7748854l-.048012-.0227524c-.8062945.7353406-1.6125908 1.4706776-2.4372711 2.2227798-.8255374-.7436937-1.6412552-1.4785367-2.4569694-2.2133816l-.0469319.0171732c-.0020581.3985117-.0006926.7971219-.000936 1.1956747a1040.7082049 1040.7082049 0 00-.0000519 1.1882022v2.4045434h-2.454285c-.0460031-.1586471-.067364-8.9178542-.020577-9.4513175zM18.5151045 27.5701783h2.43954303c.04926287.1568163.05889729 9.2139835.00847295 9.4424831h-2.44172367c-.01344094-.5998306-.00423782-1.1976084-.00592543-1.7951062-.00167419-.5925978-.00036688-1.1852037-.00036688-1.7931618h-3.02334573v3.5560288c-.18428255.055047-2.26688853.0603255-2.47393326.0110062v-9.4201701h2.46414672v3.3276876c.17609236.0508646 2.76703813.0602556 3.03090062.0115807.00073195-.2663966.00178962-.5392537.00214754-.8121117a345.3194638 345.3194638 0 00.00008411-.8488706v-.8276993c9e-7-.2754538 0-.5509059 0-.8516667zM23.8787159 37.0091725v-9.4110484c.1446908-.0473471 5.5071085-.0658455 5.8576226-.0183052v2.0056559c-.0786261.0056373-.1597863.0164117-.2409536.0165129a1476.17997478 1476.17997478 0 01-2.8649357.0007883h-.2655501v1.5599698h2.9838801v2.0752139h-2.9571969c-.0495179.1776279-.0631118 1.4153041-.0229268 1.7579286.0756007.0050817.1565918.0151689.2375989.0152646a1579.2864063 1579.2864063 0 002.8649375.0007355h.2657094v1.9972841h-5.8581854zM32.5321743 37.0127768c-.0448068-.2525467-.0357459-9.2703968.0087217-9.4418013h2.4304902v6.9584484c.1048476.005444.1871245.0133514.2694067.0134266a2043.5081764 2043.5081764 0 002.8863083.0005888h.2601508v2.4693375h-5.8550777z"/></g></g></svg>